<?xml version="1.0" standalone="no"?>
<!DOCTYPE svg PUBLIC "-//W3C//DTD SVG 20010904//EN"
 "http://www.w3.org/TR/2001/REC-SVG-20010904/DTD/svg10.dtd">
<svg version="1.0" xmlns="http://www.w3.org/2000/svg"
 width="256.000000pt" height="222.000000pt" viewBox="0 0 256.000000 222.000000"
 preserveAspectRatio="xMidYMid meet">

<g transform="translate(0.000000,222.000000) scale(0.100000,-0.100000)"
fill="#000000" stroke="none">
<path d="M576 2094 c-3 -9 -6 -45 -6 -80 l0 -64 -75 0 -75 0 0 -724 0 -723
-51 -5 c-59 -6 -79 -20 -63 -46 10 -16 54 -17 583 -20 l571 -2 0 -140 c0 -156
9 -194 56 -225 27 -19 48 -20 374 -20 341 0 345 0 376 22 17 12 37 35 43 50
12 30 9 602 -6 1008 l-8 210 -285 5 -285 5 -3 146 c-2 142 -3 147 -25 153 -44
12 -442 7 -455 -6 -8 -8 -12 -63 -12 -183 l0 -170 -52 1 -53 2 -3 331 -2 330
-78 3 -77 3 -3 78 -3 77 -188 0 c-163 0 -190 -2 -195 -16z m324 -94 l0 -40
-130 0 -130 0 0 40 0 40 130 0 130 0 0 -40z m148 -119 c9 -1 12 -146 12 -691
l0 -690 -70 0 -70 0 0 138 c0 94 -4 142 -12 150 -13 13 -232 18 -262 6 -14 -5
-16 -28 -16 -150 l0 -144 -72 0 -73 0 0 690 c0 605 2 690 15 692 12 3 485 1
548 -1z m1182 -756 l0 -155 -30 0 c-23 0 -30 5 -30 19 0 11 -11 33 -24 48 -20
23 -32 28 -71 28 -39 0 -51 -5 -71 -28 -13 -15 -24 -37 -24 -48 0 -19 -6 -20
-102 -17 -97 3 -103 4 -106 24 -2 12 -12 30 -23 40 -17 15 -19 31 -19 131 l0
113 250 0 250 0 0 -155z m-860 -265 l0 -360 -120 0 -120 0 0 360 0 360 120 0
120 0 0 -360z m325 112 c1 -11 -3 -18 -8 -15 -5 3 -13 -1 -18 -8 -6 -11 -6 16
0 49 3 13 25 -8 26 -26z m400 7 c4 -11 4 -23 1 -26 -3 -4 -6 -1 -6 6 0 7 -4 9
-10 6 -6 -4 -7 1 -3 11 5 13 3 15 -7 9 -9 -5 -11 -4 -6 3 11 18 24 14 31 -9z
m-32 -43 c-4 -5 1 -7 11 -3 23 9 33 -20 13 -40 -14 -15 -15 -14 -13 3 2 10 -1
22 -7 26 -6 3 -12 17 -14 30 -2 17 -1 19 6 8 5 -8 7 -18 4 -24z m-375 -39 c14
4 14 3 2 -5 -16 -12 -30 -7 -29 11 0 9 2 9 5 0 3 -7 13 -9 22 -6z m-113 -7
c-4 -6 -11 -8 -16 -5 -5 4 -9 -2 -9 -11 0 -13 -3 -15 -11 -7 -15 15 -3 33 22
33 11 0 17 -5 14 -10z m364 6 c-8 -8 -159 -11 -159 -3 0 4 37 7 82 7 45 0 79
-2 77 -4z m41 -11 c0 -8 -1 -17 -2 -19 -2 -2 6 -14 17 -27 l20 -24 -22 19
c-13 10 -20 23 -17 27 3 5 0 9 -6 9 -6 0 -9 4 -6 9 4 5 0 12 -6 14 -8 3 -6 6
5 6 9 1 17 -6 17 -14z m259 6 c10 -7 7 -9 -12 -8 -15 1 -27 5 -27 10 0 10 22
9 39 -2z m-73 -45 c-18 -29 -56 -53 -56 -36 0 5 6 10 14 10 8 0 23 13 32 30
10 16 20 27 22 25 3 -2 -3 -16 -12 -29z m-401 -9 c-15 -24 -15 -26 4 -36 21
-12 213 -12 221 -1 3 4 15 10 28 14 16 6 22 3 22 -8 0 -9 5 -16 11 -16 5 0 8
4 5 8 -2 4 6 8 19 8 13 0 22 -3 19 -7 -2 -4 2 -9 8 -12 7 -3 -69 -5 -170 -6
-140 -1 -182 1 -180 11 2 7 -8 13 -21 14 -23 1 -24 1 -6 -12 16 -12 5 -14 -90
-14 -116 0 -141 10 -31 13 36 1 66 4 66 8 0 4 16 10 35 13 22 4 41 17 51 32 9
13 19 23 21 20 3 -2 -3 -16 -12 -29z m-155 -18 c0 -5 -4 -9 -8 -9 -5 0 -9 7
-9 15 0 8 4 12 9 9 4 -3 8 -9 8 -15z m-55 -9 c-3 -5 -11 -10 -16 -10 -6 0 -7
5 -4 10 3 6 11 10 16 10 6 0 7 -4 4 -10z m85 6 c0 -3 -4 -8 -10 -11 -5 -3 -10
-1 -10 4 0 6 5 11 10 11 6 0 10 -2 10 -4z m514 -17 c-4 -8 9 -10 45 -8 28 2
51 1 51 -3 0 -5 -30 -8 -67 -8 -61 0 -65 1 -47 15 23 17 27 18 18 4z m-1380
-100 c-3 -5 2 -9 10 -9 24 0 19 -19 -6 -30 -17 -6 -18 -9 -6 -9 9 -1 23 8 31
19 8 11 18 17 23 12 5 -4 0 4 -11 17 l-20 24 21 -11 c12 -6 23 -10 25 -7 2 2
2 -36 0 -83 -2 -48 -6 -81 -8 -73 -5 11 -7 11 -14 0 -6 -10 -11 -11 -16 -3 -5
6 -21 13 -36 16 -21 4 -27 2 -23 -8 3 -8 -2 -14 -12 -15 -11 -1 -8 -4 8 -8 14
-5 33 -4 43 1 12 6 19 5 23 -6 3 -8 12 -12 20 -9 8 3 14 0 14 -6 0 -7 -26 -11
-71 -11 -64 0 -70 2 -65 18 4 10 7 59 8 108 l1 90 33 -4 c19 -2 31 -8 28 -13z
m1486 -267 c0 -235 -2 -281 -16 -300 -15 -22 -15 -22 -347 -22 -183 0 -337 4
-343 8 -30 20 -34 55 -34 321 l0 271 370 0 370 0 0 -278z"/>
<path d="M584 1767 c-3 -8 -4 -36 -2 -63 l3 -49 65 0 65 0 0 60 0 60 -63 3
c-47 2 -64 -1 -68 -11z"/>
<path d="M832 1718 l3 -63 60 0 60 0 0 60 0 60 -63 3 -63 3 3 -63z"/>
<path d="M600 1528 c-19 -7 -21 -14 -18 -65 l3 -58 59 -3 c41 -2 62 1 67 10
13 19 11 106 -2 114 -17 10 -84 11 -109 2z"/>
<path d="M847 1532 c-15 -3 -17 -13 -15 -65 l3 -62 60 0 60 0 3 54 c2 30 -1
58 -7 64 -10 10 -72 16 -104 9z"/>
<path d="M584 1276 c-3 -7 -4 -35 -2 -62 l3 -49 65 0 65 0 3 39 c2 22 1 50 -2
63 -6 21 -12 23 -67 23 -41 0 -61 -4 -65 -14z"/>
<path d="M837 1284 c-4 -4 -7 -34 -7 -66 l0 -59 63 3 62 3 0 60 0 60 -55 3
c-31 2 -59 0 -63 -4z"/>
<path d="M587 1033 c-11 -11 -8 -111 4 -119 17 -10 92 -11 112 -2 12 6 17 21
17 53 0 70 -5 75 -69 75 -32 0 -61 -3 -64 -7z"/>
<path d="M830 975 c0 -71 -4 -68 74 -66 22 0 43 4 48 9 5 5 8 33 6 63 l-3 54
-62 3 -63 3 0 -66z"/>
<path d="M1813 1203 c-7 -2 -13 -18 -13 -34 0 -38 12 -40 200 -37 l155 3 3 29
c2 16 -2 32 -10 37 -14 9 -314 11 -335 2z"/>
<path d="M1200 1080 c0 -52 1 -52 50 -52 11 0 25 0 30 1 6 1 10 24 10 51 l0
50 -45 0 -45 0 0 -50z"/>
<path d="M1204 927 c-3 -8 -4 -32 -2 -53 3 -38 4 -39 46 -42 l43 -3 -3 53 -3
53 -38 3 c-25 2 -39 -1 -43 -11z"/>
<path d="M1200 691 c0 -41 3 -51 21 -56 11 -4 31 -4 45 -1 21 6 24 12 24 56
l0 50 -45 0 -45 0 0 -49z"/>
<path d="M2015 800 c-3 -5 -1 -10 4 -10 6 0 11 5 11 10 0 6 -2 10 -4 10 -3 0
-8 -4 -11 -10z"/>
<path d="M720 676 c0 -9 5 -16 10 -16 6 0 10 4 10 9 0 6 -4 13 -10 16 -5 3
-10 -1 -10 -9z"/>
<path d="M762 600 c-14 -23 -5 -32 20 -19 14 7 23 7 34 -2 12 -9 14 -7 13 17
-1 18 -3 22 -6 11 -4 -16 -7 -17 -27 -4 -20 14 -24 13 -34 -3z"/>
<path d="M1795 653 c-92 -38 -155 -120 -171 -219 -8 -55 17 -141 59 -195 101
-132 301 -136 410 -8 111 129 78 319 -70 406 -58 34 -167 42 -228 16z m160
-54 c55 -15 119 -83 134 -142 21 -87 -5 -159 -81 -220 -44 -35 -122 -47 -182
-27 -154 51 -185 270 -50 362 56 39 108 46 179 27z"/>
<path d="M1784 476 c-11 -29 1 -61 23 -64 29 -4 48 30 33 58 -12 23 -48 27
-56 6z"/>
<path d="M1947 483 c-21 -20 1 -73 30 -73 19 0 33 41 21 63 -9 17 -39 23 -51
10z"/>
<path d="M1800 342 c0 -60 111 -86 166 -39 36 31 28 63 -14 51 -32 -10 -86 -9
-124 1 -24 6 -28 4 -28 -13z"/>
</g>
</svg>
